<svg xmlns="http://www.w3.org/2000/svg" xmlns:xlink="http://www.w3.org/1999/xlink" version="1.1" x="0px" y="0px" viewBox="0 0 5 5" enable-background="new 0 0 5 5" xml:space="preserve"><g><g><path fill="#000000" d="M1.023,2.386C1.24,2.516,1.51,2.514,1.724,2.402c0.007-0.003,0.013-0.007,0.021-0.012c0,0,0,0,0,0    C1.75,2.388,1.753,2.386,1.757,2.383c0.194-0.112,0.16,0.074-0.056,0.218C1.689,2.609,1.679,2.616,1.67,2.624    C1.667,2.625,1.665,2.627,1.662,2.629C1.572,2.686,1.491,2.745,1.419,2.823C1.312,2.94,1.24,3.146,1.328,3.296    c0.057,0.099,0.137,0.181,0.196,0.279c0.077,0.128,0.091,0.417-0.145,0.343C1.367,3.914,1.353,3.927,1.36,3.938    c0.091,0.138,0.256,0.094,0.358-0.014c0.177-0.187,0.036-0.457-0.07-0.633c-0.14-0.234,0.101-0.309,0.269-0.384    c0.005,0.052,0.016,0.105,0.035,0.16c0.05,0.144,0.143,0.254,0.259,0.339c-0.14,0.109-0.273,0.245-0.303,0.375    C1.863,3.979,1.928,4.179,2.114,4.19c0.152,0.009,0.262-0.097,0.28-0.21c0.002-0.011-0.013-0.019-0.02-0.011    C2.175,4.167,1.99,3.886,2.187,3.749c0.1-0.07,0.205-0.129,0.314-0.184C2.609,3.62,2.713,3.679,2.814,3.749    c0.196,0.137,0.011,0.417-0.188,0.22c-0.008-0.008-0.022,0-0.021,0.011c0.018,0.114,0.128,0.219,0.28,0.21    c0.186-0.011,0.25-0.211,0.206-0.409c-0.03-0.13-0.163-0.266-0.302-0.375c0.115-0.085,0.208-0.195,0.258-0.339    c0.019-0.055,0.03-0.108,0.035-0.161C3.254,2.974,3.5,3.038,3.37,3.278C3.272,3.459,3.145,3.736,3.33,3.914    c0.106,0.103,0.273,0.139,0.358-0.003c0.007-0.012-0.008-0.023-0.019-0.02C3.437,3.976,3.437,3.687,3.508,3.555    c0.054-0.1,0.13-0.186,0.183-0.288c0.08-0.154,0-0.356-0.113-0.468C3.502,2.724,3.418,2.67,3.326,2.617    c-0.009-0.005-0.018-0.01-0.027-0.016l0,0c-0.217-0.144-0.25-0.33-0.057-0.218c0.004,0.002,0.008,0.005,0.013,0.007l0,0    C3.263,2.395,3.27,2.399,3.276,2.402C3.491,2.514,3.76,2.516,3.977,2.386C4.185,2.261,4.33,1.999,4.22,1.756    C4.105,1.498,3.865,1.46,3.65,1.623c-0.02,0.015-0.007,0.043,0.017,0.039C3.976,1.595,4.161,1.896,3.88,2.088    c-0.186,0.127-0.412-0.039-0.516-0.19c-0.024-0.035-0.045-0.072-0.065-0.11c0-0.001,0-0.001,0-0.001    C3.29,1.77,3.282,1.752,3.274,1.734C3.27,1.724,3.265,1.713,3.26,1.702c0.082-0.013,0.167-0.047,0.226-0.107    c0.073-0.075,0.107-0.162,0.138-0.26c0.041-0.127,0.083-0.266,0.221-0.304c0.068-0.019,0.125-0.025,0.188,0.034    s0.058,0.138,0.023,0.213c-0.011,0.025,0.02,0.057,0.04,0.032c0.046-0.055,0.087-0.111,0.089-0.187    c0.002-0.082-0.041-0.172-0.104-0.225c-0.154-0.129-0.359-0.11-0.513,0.01C3.503,0.96,3.451,1.029,3.413,1.103    C3.389,1.147,3.374,1.195,3.351,1.24c-0.021,0.039-0.05,0.072-0.077,0.107C3.26,1.366,3.243,1.373,3.224,1.376    C3.208,1.38,3.162,1.388,3.137,1.381C3.109,1.373,3.086,1.353,3.055,1.309C3.05,1.302,3.045,1.297,3.04,1.293    c-0.1-0.131-0.234-0.232-0.432-0.26C2.576,1.028,2.542,1.025,2.507,1.025c-0.002,0-0.004,0-0.006,0c-0.002,0-0.005,0-0.007,0    c-0.035,0-0.068,0.003-0.101,0.008C2.187,1.062,2.051,1.17,1.95,1.308c0,0,0,0,0,0.001s0,0.001-0.001,0.001    S1.947,1.311,1.947,1.312c-0.029,0.042-0.053,0.061-0.08,0.069C1.843,1.388,1.796,1.38,1.78,1.376    c-0.019-0.003-0.036-0.01-0.051-0.029C1.703,1.312,1.673,1.279,1.653,1.24C1.63,1.195,1.615,1.147,1.592,1.103    C1.553,1.029,1.501,0.96,1.436,0.909C1.282,0.788,1.077,0.77,0.922,0.898C0.859,0.951,0.817,1.041,0.819,1.123    C0.82,1.199,0.861,1.254,0.907,1.31c0.02,0.024,0.052-0.007,0.04-0.032c-0.035-0.075-0.04-0.154,0.023-0.213    c0.062-0.059,0.12-0.052,0.188-0.034c0.139,0.038,0.181,0.177,0.221,0.304c0.032,0.098,0.066,0.186,0.139,0.26    c0.058,0.06,0.142,0.094,0.223,0.107c-0.005,0.011-0.01,0.021-0.015,0.032C1.718,1.752,1.71,1.77,1.702,1.787c0,0,0,0,0,0.001    c-0.02,0.038-0.041,0.075-0.065,0.11c-0.104,0.151-0.33,0.317-0.516,0.19C0.84,1.896,1.024,1.595,1.333,1.661    c0.024,0.005,0.036-0.024,0.017-0.039C1.136,1.46,0.896,1.498,0.78,1.756C0.671,1.999,0.815,2.261,1.023,2.386z M2.812,1.894    c0,0.044-0.036,0.08-0.081,0.08s-0.08-0.036-0.08-0.08s0.036-0.08,0.08-0.08S2.812,1.85,2.812,1.894z M2.269,1.974    c-0.044,0-0.08-0.036-0.08-0.08s0.036-0.08,0.08-0.08c0.044,0,0.08,0.036,0.08,0.08S2.313,1.974,2.269,1.974z M2.336,2.774    C2.362,2.699,2.43,2.652,2.5,2.604c0.07,0.048,0.138,0.095,0.164,0.17C2.732,2.977,2.67,3.101,2.5,3.211    C2.331,3.101,2.268,2.977,2.336,2.774z"/></g></g></svg>